Hanif_Deep_2_5_grf.mot
version=1
nRows=21
nColumns=19
inDegrees=yes
endheader
time	right_ground_force_vx	right_ground_force_vy	right_ground_force_vz	right_ground_force_px	right_ground_force_py	right_ground_force_pz	right_ground_torque_x	right_ground_torque_y	right_ground_torque_z	left_ground_force_vx	left_ground_force_vy	left_ground_force_vz	left_ground_force_px	left_ground_force_py	left_ground_force_pz	left_ground_torque_x	left_ground_torque_y	left_ground_torque_z
5.015000	-3.913240	319.531000	-6.139480	0.195175	0.000000	-1.447700	-18.700400	5.707000	-1.656300	1.185930	321.285000	9.877370	0.230090	0.000000	-0.970932	21.796800	-8.169230	9.427980
5.020000	-4.205440	315.269000	-6.181750	0.195254	0.000000	-1.447260	-18.596900	5.676070	-1.613140	1.046800	320.191000	9.923620	0.229695	0.000000	-0.970676	21.643600	-8.219890	9.264780
5.025000	-4.147610	312.653000	-6.323030	0.195479	0.000000	-1.447350	-18.413900	5.611630	-1.532550	1.184620	318.532000	10.145700	0.229314	0.000000	-0.970621	21.510600	-8.121910	9.090900
5.030000	-3.942340	308.373000	-6.516620	0.195254	0.000000	-1.447460	-18.128800	5.661710	-1.588770	1.220580	315.967000	10.050200	0.229248	0.000000	-0.969911	21.111400	-8.176020	8.993450
5.035000	-4.302450	305.985000	-6.966500	0.195650	0.000000	-1.447170	-18.084800	5.644890	-1.465890	1.095590	312.634000	10.191100	0.229487	0.000000	-0.970288	21.009300	-8.128910	8.965720
5.040000	-4.665980	303.756000	-7.461480	0.196054	0.000000	-1.446910	-18.039800	5.566600	-1.342900	1.955030	310.067000	10.205300	0.229323	0.000000	-0.969861	20.683400	-8.048810	8.841410
5.045000	-5.098440	299.116000	-7.910530	0.195825	0.000000	-1.447190	-17.691900	5.575520	-1.405060	1.857750	307.142000	10.027400	0.229141	0.000000	-0.969867	20.491100	-8.120290	8.698790
5.050000	-5.505990	297.070000	-8.314950	0.195960	0.000000	-1.446520	-17.777300	5.477540	-1.363650	2.072970	303.437000	9.610300	0.228778	0.000000	-0.970188	20.334800	-8.098740	8.488940
5.055000	-5.647290	296.343000	-8.767140	0.196701	0.000000	-1.446790	-17.656300	5.467990	-1.150010	2.425030	302.148000	9.507060	0.228541	0.000000	-0.969352	19.987000	-8.041500	8.384190
5.060000	-6.560020	294.517000	-9.430900	0.197204	0.000000	-1.446490	-17.654300	5.376960	-1.008910	2.417860	299.204000	9.236710	0.228870	0.000000	-0.968786	19.621800	-8.042470	8.402920
5.065000	-6.591610	291.532000	-9.480040	0.196965	0.000000	-1.445810	-17.678400	5.367490	-1.073230	2.503590	297.000000	9.141530	0.228823	0.000000	-0.968448	19.374000	-8.014310	8.326870
5.070000	-6.733270	290.424000	-10.066700	0.197448	0.000000	-1.446190	-17.502900	5.312450	-0.940235	2.373000	295.711000	9.189500	0.228535	0.000000	-0.969236	19.525800	-8.005450	8.202450
5.075000	-7.077440	287.468000	-10.109100	0.197506	0.000000	-1.446410	-17.270100	5.231610	-0.916628	2.468770	294.240000	9.414560	0.228710	0.000000	-0.968779	19.291400	-7.980260	8.205990
5.080000	-6.805250	284.281000	-10.761400	0.197425	0.000000	-1.445460	-17.348500	5.282760	-0.948531	2.284090	293.141000	9.373890	0.228513	0.000000	-0.968756	19.217500	-7.909840	8.118860
5.085000	-6.793900	283.911000	-10.535200	0.197755	0.000000	-1.445250	-17.384900	5.246090	-0.848335	2.427850	291.859000	9.505900	0.228601	0.000000	-0.968869	19.162500	-7.878270	8.104830
5.090000	-7.195120	281.702000	-10.753700	0.197972	0.000000	-1.445380	-17.222500	5.203290	-0.787377	1.844820	289.110000	9.711180	0.229092	0.000000	-0.968550	18.903600	-7.864650	8.160130
5.095000	-7.265320	279.480000	-10.665000	0.198567	0.000000	-1.445340	-17.098300	5.082650	-0.611942	2.111490	289.478000	9.741460	0.228538	0.000000	-0.968487	18.903200	-7.799710	8.012550
5.100000	-7.441460	277.778000	-10.932900	0.198407	0.000000	-1.445200	-17.035800	5.054800	-0.659948	2.163810	288.190000	9.654870	0.229147	0.000000	-0.968623	18.856700	-7.781890	8.153200
5.105000	-7.316730	274.445000	-10.307500	0.198566	0.000000	-1.444640	-16.986400	5.030870	-0.600006	1.755030	286.890000	9.757570	0.228814	0.000000	-0.968881	18.855600	-7.736790	8.016920
5.110000	-7.143490	274.626000	-10.722000	0.198910	0.000000	-1.444710	-16.971900	4.965110	-0.510753	1.889200	286.367000	9.618610	0.229420	0.000000	-0.968405	18.682200	-7.651940	8.181480
5.115000	-7.504440	273.746000	-10.721100	0.198981	0.000000	-1.444820	-16.894300	4.892520	-0.489096	1.408480	282.695000	9.951310	0.229417	0.000000	-0.969105	18.651500	-7.627490	8.061060
